<?xml version="1.0" standalone="no"?>
<!DOCTYPE svg PUBLIC "-//W3C//DTD SVG 20010904//EN"
 "http://www.w3.org/TR/2001/REC-SVG-20010904/DTD/svg10.dtd">
<svg version="1.0" xmlns="http://www.w3.org/2000/svg"
 width="250.000000pt" height="60.000000pt" viewBox="0 0 250.000000 60.000000"
 preserveAspectRatio="xMidYMid meet">
<metadata>
Created by potrace 1.10, written by Peter Selinger 2001-2011
</metadata>
<g transform="translate(0.000000,60.000000) scale(0.100000,-0.100000)"
fill="#000000" stroke="none">
<path d="M217 472 c-44 -45 -77 -86 -77 -97 0 -24 148 -175 171 -175 16 0 49
30 49 44 0 4 -27 36 -60 70 l-60 63 60 60 c33 33 60 65 60 71 0 16 -29 42 -48
42 -10 0 -52 -35 -95 -78z m66 -4 c-11 -13 -30 -34 -42 -48 -12 -13 -19 -30
-17 -37 3 -7 1 -25 -5 -39 l-9 -27 -20 23 c-11 13 -20 28 -20 34 0 16 102 115
119 116 11 0 9 -6 -6 -22z m18 -209 c7 -15 6 -17 -6 -13 -15 6 -35 35 -35 50
0 10 30 -17 41 -37z"/>
<path d="M825 335 l0 -175 103 0 c101 0 104 1 133 29 36 36 40 95 9 133 -14
19 -18 34 -13 61 7 48 -12 94 -48 112 -17 10 -57 15 -106 15 l-78 0 0 -175z
m163 103 c7 -7 12 -21 12 -33 0 -32 -20 -45 -70 -45 l-45 0 3 45 4 45 42 0
c23 0 47 -5 54 -12z m26 -144 c9 -4 16 -18 16 -34 0 -34 -14 -40 -89 -40 l-57
0 4 40 4 40 53 0 c29 0 60 -3 69 -6z"/>
<path d="M2320 454 c0 -50 -2 -55 -17 -48 -10 4 -35 8 -57 8 -32 0 -45 -7 -72
-37 -30 -32 -34 -43 -34 -92 0 -49 3 -58 35 -90 30 -29 43 -35 78 -35 24 0 48
5 55 12 9 9 12 9 12 0 0 -7 13 -12 30 -12 l30 0 0 175 0 175 -30 0 c-30 0 -30
0 -30 -56z m-25 -119 c14 -13 25 -33 25 -43 0 -29 -38 -72 -64 -72 -54 0 -79
87 -35 122 29 24 45 23 74 -7z"/>
<path d="M1117 489 c-39 -22 -4 -79 35 -58 10 5 18 18 18 29 0 25 -30 41 -53
29z"/>
<path d="M1247 446 c-14 -20 -14 -25 -2 -30 10 -4 5 -14 -20 -39 -30 -30 -35
-42 -35 -81 0 -26 6 -59 14 -75 9 -17 11 -32 5 -42 -18 -29 -10 -89 16 -114
35 -36 125 -36 160 0 35 34 33 65 -4 65 -16 0 -31 -6 -35 -15 -7 -19 -82 -21
-89 -2 -10 27 13 47 53 47 94 0 151 123 94 205 -14 20 -123 105 -135 105 -4 0
-14 -11 -22 -24z m98 -111 c30 -29 32 -68 5 -95 -41 -41 -100 -13 -100 47 0
35 29 73 55 73 9 0 27 -11 40 -25z"/>
<path d="M1452 326 c3 -89 5 -97 32 -125 34 -35 79 -47 119 -32 24 9 27 8 27
-9 0 -43 -57 -65 -90 -35 -14 13 -22 14 -44 4 -33 -16 -33 -22 5 -53 36 -30
101 -35 137 -10 44 31 52 63 52 214 l0 140 -33 0 -32 0 3 -79 c4 -70 2 -81
-17 -100 -26 -26 -55 -27 -81 -1 -17 17 -20 33 -20 100 l0 80 -31 0 -31 0 4
-94z"/>
<path d="M1784 410 c-11 -4 -33 -22 -47 -40 -46 -55 -32 -155 27 -194 29 -19
97 -21 114 -4 9 9 12 9 12 0 0 -7 13 -12 30 -12 l30 0 0 130 0 130 -29 0 c-16
0 -31 -5 -33 -11 -3 -9 -9 -9 -25 0 -25 13 -49 13 -79 1z m81 -75 c14 -13 25
-33 25 -43 0 -29 -38 -72 -64 -72 -54 0 -79 87 -35 122 29 24 45 23 74 -7z"/>
<path d="M1975 290 l0 -130 30 0 30 0 0 80 c0 90 13 114 63 112 22 0 32 6 41
24 6 14 11 28 11 31 0 3 -27 3 -60 1 -33 -2 -60 -1 -60 4 0 4 -12 8 -27 8
l-28 0 0 -130z"/>
<path d="M1110 301 c0 -60 -3 -116 -6 -125 -5 -13 1 -16 27 -16 l34 0 0 125 0
125 -27 0 -28 0 0 -109z"/>
<path d="M387 372 c-10 -10 -17 -23 -17 -28 0 -4 27 -36 61 -70 l61 -61 -61
-58 c-34 -32 -61 -65 -61 -75 0 -23 20 -40 46 -40 29 0 174 146 174 175 0 24
-147 175 -171 175 -9 0 -23 -8 -32 -18z m163 -181 c-6 -12 -14 -21 -19 -21 -4
0 -27 -19 -49 -42 -56 -56 -65 -41 -13 18 23 26 39 54 37 61 -3 7 -1 25 5 40
l10 27 20 -31 c16 -25 18 -36 9 -52z"/>
</g>
</svg>
